# xmcd CD database file generated by Grip 3.2.0
# 
# Track frame offsets:
#       150
#       23672
#       48067
#       69807
#       95515
#       126547
#       149280
#       168465
#       195130
#       213055
#       237532
# 
# Disc length: 3408 seconds
# 
# Revision: 2
# Processed by: cddbd v1.5.1PL0 Copyright (c) Steve Scherf et al.
# Submitted via: Grip 3.2.0
# 
DISCID=8d0d4e0b
DTITLE=Paul Schwartz - State of Grace II - Turning to Peace
DYEAR=2003
DGENRE=New Age
TTITLE0=Magnificat
TTITLE1=Turning to Peace
TTITLE2=Curación (Sunlight on Water)
TTITLE3=Stabat Mater
TTITLE4=Quia Respexit
TTITLE5=Fear Not
TTITLE6=Et Misericordia
TTITLE7=Suscepit Israel
TTITLE8=Ave Maria
TTITLE9=Gloria
TTITLE10=Let Me
EXTD=YEAR: 2003
EXTT0=
EXTT1=
EXTT2=
EXTT3=
EXTT4=
EXTT5=
EXTT6=
EXTT7=
EXTT8=
EXTT9=
EXTT10=
PLAYORDER=
